<?xml version="1.0" standalone="no"?>
<!DOCTYPE svg PUBLIC "-//W3C//DTD SVG 20010904//EN"
 "http://www.w3.org/TR/2001/REC-SVG-20010904/DTD/svg10.dtd">
<svg version="1.0" xmlns="http://www.w3.org/2000/svg"
 width="970.000000pt" height="257.000000pt" viewBox="0 0 970.000000 257.000000"
 preserveAspectRatio="xMidYMid meet">

<g transform="translate(0.000000,257.000000) scale(0.100000,-0.100000)"
fill="#000000" stroke="none">
<path d="M920 2365 c-7 -8 -17 -36 -21 -62 -5 -25 -10 -48 -12 -49 -1 -1 -56
-13 -122 -27 -358 -73 -627 -265 -722 -515 -30 -80 -42 -234 -24 -327 44 -236
256 -391 507 -371 106 8 148 25 152 59 4 37 -14 42 -93 26 -168 -33 -349 60
-422 216 -40 85 -45 216 -12 317 56 176 231 336 467 426 76 30 238 70 246 61
3 -2 -4 -90 -14 -194 -11 -105 -24 -289 -31 -410 -6 -121 -13 -226 -15 -233
-4 -14 -57 11 -106 49 -50 41 -109 -4 -79 -60 6 -11 49 -52 95 -91 l83 -70 6
-322 c3 -196 10 -338 17 -361 6 -21 24 -52 39 -70 24 -26 32 -30 51 -21 l23
10 -2 332 c-2 236 1 332 9 332 6 0 41 -17 78 -38 162 -92 364 -171 509 -198
254 -48 430 2 695 195 17 13 23 11 56 -21 50 -48 72 -58 132 -58 57 0 111 23
149 64 30 32 42 32 67 5 32 -37 93 -59 164 -59 71 0 119 18 194 69 l43 30 7
-142 c23 -478 51 -616 144 -699 35 -32 49 -38 87 -38 66 0 108 41 138 134 19
62 22 91 21 231 -1 131 -5 175 -23 240 -26 97 -85 223 -134 288 -21 26 -37 51
-37 55 0 4 24 16 53 26 70 24 142 67 197 116 53 47 62 49 58 12 -2 -22 -8 -28
-35 -30 -22 -2 -34 -10 -38 -23 -8 -24 17 -66 48 -80 22 -10 22 -12 22 -277 1
-351 23 -481 107 -607 39 -59 80 -85 135 -85 57 0 101 43 128 125 28 86 34
325 10 433 -31 137 -73 239 -138 329 -17 24 -28 45 -26 47 2 2 55 5 117 7
l113 4 18 -53 c28 -82 66 -116 146 -131 87 -16 172 11 293 95 35 24 64 44 66
44 2 0 6 -19 9 -42 6 -47 36 -77 77 -78 34 0 50 17 50 52 0 62 152 175 261
193 l36 7 7 -57 c8 -70 26 -107 68 -138 81 -61 191 -62 313 -3 92 43 190 132
205 184 11 40 -1 72 -27 72 -10 0 -68 -34 -129 -76 -119 -80 -193 -114 -248
-114 -48 0 -57 17 -54 103 3 68 1 78 -21 101 -54 57 -162 56 -306 -5 -80 -33
-85 -34 -85 -15 0 19 -57 66 -80 66 -22 0 -39 -20 -49 -57 -15 -57 -247 -204
-346 -219 -36 -5 -50 -3 -63 10 -14 14 -15 24 -4 83 7 38 14 82 16 98 2 17 7
44 11 61 10 44 -20 74 -75 74 -43 0 -54 -12 -75 -85 -12 -38 -14 -40 -61 -47
-69 -9 -262 -10 -267 0 -9 18 22 284 42 348 32 106 54 264 55 396 1 104 -1
119 -20 145 -12 15 -33 32 -49 38 -57 20 -68 -21 -105 -380 -11 -104 -25 -205
-31 -224 -33 -100 -160 -241 -265 -292 -35 -18 -67 -29 -70 -26 -3 3 17 46 44
95 92 167 165 366 197 536 23 124 18 296 -11 351 -75 143 -260 99 -340 -82
-52 -117 -84 -404 -84 -753 l0 -150 -29 0 c-32 0 -44 -19 -35 -55 5 -19 -2
-28 -40 -55 -49 -33 -144 -70 -181 -70 -41 0 -58 33 -63 120 -4 72 -7 83 -30
101 -45 35 -71 23 -110 -54 -47 -92 -125 -177 -163 -177 -22 0 -30 6 -35 26
-10 39 2 104 25 135 29 39 27 73 -5 98 -40 31 -78 27 -108 -11 -26 -35 -46
-96 -46 -140 0 -22 -12 -33 -78 -72 -99 -58 -188 -98 -282 -127 -188 -58 -440
-13 -714 129 l-71 36 95 7 c345 24 614 169 723 389 30 62 32 71 32 180 l0 115
-43 88 c-110 226 -349 359 -715 398 l-118 12 6 38 c5 30 2 42 -14 58 -25 25
-92 29 -111 6z m280 -225 c263 -28 469 -142 561 -312 32 -58 34 -69 34 -153 0
-78 -4 -98 -27 -145 -92 -186 -377 -331 -646 -329 -53 0 -115 6 -137 13 l-40
12 3 94 c5 170 51 714 68 797 7 34 38 38 184 23z m2151 -12 c18 -34 12 -202
-11 -319 -37 -177 -157 -498 -181 -483 -12 7 -11 194 1 379 16 225 54 362 117
421 32 30 59 31 74 2z m337 -1175 c37 -53 71 -131 94 -215 20 -70 23 -107 23
-243 0 -144 -2 -165 -22 -208 -13 -28 -28 -47 -35 -45 -37 11 -79 159 -99 348
-11 110 -3 390 12 390 4 0 16 -12 27 -27z m-474 -49 c31 -56 61 -142 77 -224
30 -158 1 -440 -46 -440 -17 0 -44 75 -60 168 -16 89 -41 523 -31 548 8 22 28
6 60 -52z"/>
<path d="M7745 2270 c-251 -39 -480 -238 -546 -475 -20 -73 -18 -255 5 -330
27 -88 79 -194 131 -264 39 -52 45 -68 45 -109 0 -151 42 -338 105 -467 70
-144 158 -236 288 -301 119 -61 276 -58 404 6 166 83 282 229 422 528 3 8 58
31 121 52 64 21 148 54 188 74 39 20 74 36 77 36 3 0 5 -16 5 -35 0 -63 33
-109 88 -125 44 -12 60 5 73 75 15 82 52 149 118 215 61 62 153 120 189 120
12 0 34 -7 48 -17 23 -15 28 -15 59 0 40 19 51 48 34 88 -14 36 -74 69 -123
69 -59 0 -152 -36 -231 -88 l-75 -50 -17 35 c-20 43 -74 70 -109 54 -18 -8
-24 -21 -29 -68 -15 -136 -15 -135 -75 -165 -62 -30 -259 -98 -285 -98 -14 0
-16 6 -11 31 14 73 19 317 7 399 -60 417 -259 695 -564 789 -80 24 -251 35
-342 21z m285 -122 c118 -22 241 -102 320 -207 143 -191 211 -533 165 -836 -8
-55 -21 -105 -28 -111 -14 -15 -232 -44 -322 -44 -252 0 -494 70 -617 179
l-41 37 11 100 c16 134 44 239 91 339 49 105 106 168 171 190 53 18 68 41 50
74 -25 48 -82 53 -158 15 -117 -58 -213 -229 -258 -458 -10 -47 -21 -86 -25
-86 -5 0 -18 18 -29 40 -70 137 -66 346 8 484 34 64 129 165 190 205 134 86
293 112 472 79z m-388 -1198 c214 -104 424 -142 658 -121 68 6 125 9 128 7 8
-8 -15 -63 -59 -138 -56 -97 -185 -226 -262 -262 -112 -52 -234 -53 -322 -1
-101 59 -204 220 -243 380 -19 78 -35 195 -26 195 2 0 59 -27 126 -60z"/>
<path d="M6616 2147 c-19 -14 -33 -103 -66 -418 -15 -152 -28 -224 -55 -319
-19 -67 -35 -124 -35 -126 0 -2 -42 -1 -93 2 -124 9 -194 -11 -253 -70 -75
-74 -79 -165 -12 -242 67 -76 171 -99 253 -57 39 21 97 78 141 138 l21 29 7
-182 c10 -280 38 -392 109 -446 76 -58 144 -7 82 60 -14 15 -29 43 -34 63 -42
160 -40 721 4 1031 8 58 22 186 30 285 17 203 14 224 -40 249 -40 19 -37 19
-59 3z m-216 -985 c0 -5 -14 -29 -31 -53 -64 -90 -132 -128 -170 -93 -44 40 2
128 76 147 34 8 125 7 125 -1z"/>
<path d="M6960 2009 c-7 -11 -9 -28 -6 -36 4 -9 1 -30 -5 -48 -16 -45 -5 -80
30 -95 86 -35 144 93 80 175 -26 33 -83 35 -99 4z"/>
<path d="M4082 1578 c-7 -7 -12 -20 -12 -30 0 -9 -7 -33 -17 -52 -15 -32 -15
-37 0 -60 17 -26 64 -41 96 -31 13 4 28 27 40 61 26 69 26 70 -4 99 -26 27
-82 34 -103 13z"/>
</g>
</svg>
